<?xml version="1.0" standalone="no"?>
<!DOCTYPE svg PUBLIC "-//W3C//DTD SVG 20010904//EN"
 "http://www.w3.org/TR/2001/REC-SVG-20010904/DTD/svg10.dtd">
<svg version="1.0" xmlns="http://www.w3.org/2000/svg"
 width="300.000000pt" height="230.000000pt" viewBox="0 0 300.000000 230.000000"
 preserveAspectRatio="xMidYMid meet">
<metadata>
Created by potrace 1.10, written by Peter Selinger 2001-2011
</metadata>
<g transform="translate(0.000000,230.000000) scale(0.100000,-0.100000)"
fill="#000000" stroke="none">
<path d="M907 1847 c-8 -17 -20 -48 -27 -68 -11 -31 -21 -39 -78 -60 -96 -36
-96 -60 4 -94 54 -18 58 -22 81 -75 46 -108 55 -111 88 -33 37 85 34 82 105
112 88 38 87 55 -4 90 -38 14 -72 33 -74 41 -27 84 -45 120 -63 120 -12 0 -24
-12 -32 -33z m51 -105 c10 -33 18 -41 53 -51 45 -13 44 -20 -4 -37 -32 -11
-40 -20 -58 -69 l-11 -30 -17 45 c-14 39 -22 46 -54 54 -20 5 -37 13 -37 16 0
4 18 14 39 22 30 12 42 24 52 52 7 20 16 36 19 36 4 0 12 -17 18 -38z"/>
<path d="M1863 1860 c-84 -51 -83 -180 2 -216 69 -29 152 -8 179 45 60 115
-70 239 -181 171z m114 -45 c26 -18 38 -67 23 -94 -28 -54 -89 -63 -130 -19
-61 66 32 165 107 113z"/>
<path d="M1644 1850 c-47 -18 -54 -45 -54 -191 0 -123 2 -139 21 -163 18 -23
28 -26 80 -26 l59 0 0 -61 c0 -58 -3 -64 -55 -137 l-55 -75 2 -161 3 -161 75
0 75 0 3 145 3 145 31 32 c23 24 41 33 65 33 l33 0 2 -177 3 -178 75 0 75 0 2
295 2 295 25 3 c26 3 26 2 26 -62 0 -79 5 -93 41 -111 38 -20 53 -19 84 8 26
22 27 25 27 143 0 131 -8 158 -50 169 -13 3 -86 5 -161 5 -75 -1 -180 -1 -233
0 l-98 0 0 89 c0 79 -3 93 -22 115 -27 29 -55 38 -84 26z m54 -167 l3 -113
267 -2 267 -3 3 -109 c3 -112 -2 -131 -31 -120 -13 5 -17 23 -19 92 l-3 87
-63 3 c-40 2 -69 -2 -79 -9 -12 -11 -14 -55 -11 -301 l3 -288 -27 0 -28 0 -2
178 -3 177 -68 3 -68 3 -44 -48 -44 -48 -1 -132 0 -133 -27 0 -28 0 2 136 2
135 51 68 50 68 0 92 c0 103 4 98 -100 103 l-55 3 -3 124 c-1 69 0 131 3 139
3 7 15 12 27 10 22 -3 23 -7 26 -115z"/>
<path d="M1331 1655 c-28 -26 -51 -53 -51 -59 0 -7 23 -34 50 -61 l50 -49 50
49 c28 27 50 54 50 60 0 6 -22 33 -49 59 l-49 48 -51 -47z m73 -43 c15 -18 15
-20 -4 -37 -19 -17 -21 -17 -40 0 -19 17 -19 19 -4 37 10 10 20 18 24 18 4 0
14 -8 24 -18z"/>
<path d="M1143 1369 c-105 -52 -93 -199 20 -230 87 -23 162 32 162 121 0 55
-27 93 -82 116 -42 18 -50 18 -100 -7z m118 -68 c59 -74 -49 -164 -116 -96
-29 28 -32 61 -9 93 32 46 90 48 125 3z"/>
<path d="M1409 1341 c-22 -18 -24 -27 -26 -118 l-2 -98 -228 0 c-248 0 -261
-3 -298 -59 -19 -28 -31 -147 -21 -200 12 -63 34 -76 126 -76 l80 0 0 -35 c0
-19 12 -78 27 -129 l26 -95 -52 -91 c-29 -50 -50 -97 -47 -105 4 -11 23 -15
73 -15 l68 0 59 102 59 102 -22 73 c-26 91 -26 93 3 93 21 0 27 -9 47 -67 21
-64 21 -72 10 -176 -8 -69 -9 -113 -3 -119 15 -15 134 -5 143 12 4 8 12 61 18
117 l12 101 -41 144 c-27 98 -40 165 -40 206 l0 62 54 0 c45 0 58 4 80 27 l27
27 -3 149 c-3 142 -4 150 -27 168 -30 24 -72 24 -102 0z m79 -165 c2 -84 -1
-133 -9 -142 -6 -8 -37 -14 -77 -16 l-67 -3 -3 -90 c-2 -79 2 -107 37 -231 38
-139 38 -141 28 -232 l-11 -92 -29 0 c-21 0 -28 4 -24 14 3 8 8 56 11 108 5
85 4 100 -22 168 l-27 75 -68 3 c-54 2 -68 0 -73 -13 -6 -15 15 -109 37 -165
8 -21 2 -38 -37 -108 -39 -68 -51 -82 -71 -82 -29 0 -30 -5 24 85 l42 70 -29
100 c-33 110 -38 165 -16 165 28 0 66 41 66 71 0 43 -15 65 -51 78 -25 9 -30
15 -26 32 11 40 -1 49 -68 49 -76 0 -87 -11 -83 -77 l3 -48 75 -2 c41 -1 81
-2 88 -2 8 -1 12 -10 10 -23 -3 -22 -8 -23 -107 -26 -62 -2 -108 1 -114 7 -12
12 -12 175 -1 192 3 6 22 18 41 26 28 11 82 14 259 12 124 -1 227 1 231 4 3 4
5 48 4 100 -2 108 3 129 33 125 20 -3 21 -9 24 -132z m-440 -218 c-7 -20 -58
-23 -58 -4 0 11 10 16 31 16 20 0 29 -4 27 -12z"/>
<path d="M2133 764 c-24 -24 -43 -49 -43 -54 0 -10 85 -92 102 -99 13 -4 98
81 98 99 0 20 -80 100 -100 99 -8 0 -34 -20 -57 -45z m80 -73 c-20 -19 -22
-19 -37 -2 -20 22 -20 31 2 47 14 11 20 10 37 -6 19 -20 19 -20 -2 -39z"/>
<path d="M1864 732 c-5 -4 -21 -35 -33 -69 -21 -56 -27 -63 -69 -81 -26 -11
-57 -23 -70 -27 -16 -5 -22 -13 -20 -28 2 -15 20 -26 69 -44 l65 -24 25 -66
c36 -98 57 -97 94 4 21 54 24 58 83 83 105 44 105 54 7 94 -65 26 -63 25 -99
109 -25 57 -31 63 -52 49z m30 -124 c8 -42 22 -56 62 -64 19 -3 34 -9 34 -13
0 -4 -19 -13 -42 -21 -37 -13 -44 -20 -52 -52 -5 -21 -13 -38 -16 -38 -4 0
-14 17 -22 39 -12 30 -24 41 -52 51 -20 6 -36 15 -36 19 0 4 17 13 38 19 32
10 41 18 52 52 16 48 25 51 34 8z"/>
</g>
</svg>
