<?xml version="1.0" standalone="no"?>
<!DOCTYPE svg PUBLIC "-//W3C//DTD SVG 20010904//EN"
 "http://www.w3.org/TR/2001/REC-SVG-20010904/DTD/svg10.dtd">
<svg version="1.0" xmlns="http://www.w3.org/2000/svg"
 width="300.000000pt" height="234.000000pt" viewBox="0 0 300.000000 234.000000"
 preserveAspectRatio="xMidYMid meet">
<metadata>
Created by potrace 1.10, written by Peter Selinger 2001-2011
</metadata>
<g transform="translate(0.000000,234.000000) scale(0.100000,-0.100000)"
fill="#000000" stroke="none">
<path d="M1046 1541 c-298 -298 -407 -413 -404 -427 3 -16 14 -19 81 -22 l77
-3 0 -211 0 -211 -69 5 c-77 6 -95 0 -89 -28 3 -18 19 -19 319 -22 l317 -2
-101 -149 c-64 -96 -97 -155 -94 -165 6 -15 47 -16 384 -14 335 3 378 5 381
19 1 8 -42 81 -97 162 l-99 147 316 2 c301 3 317 4 320 22 6 28 -12 34 -89 28
l-69 -5 0 211 0 211 77 3 c67 3 78 6 81 22 3 14 -106 129 -404 427 -225 225
-413 409 -419 409 -6 0 -194 -184 -419 -409z m636 77 l-22 -23 -93 93 c-51 50
-97 92 -102 92 -6 0 -154 -144 -330 -320 -320 -320 -320 -320 -362 -320 -24 0
-43 1 -43 3 0 1 165 168 368 370 l367 367 120 -120 120 -120 -23 -22z m-135
17 l74 -75 -216 -217 c-129 -130 -215 -223 -213 -232 3 -13 20 -17 83 -19 l80
-3 -2 -207 -2 -207 -246 0 -247 0 1 214 0 214 298 303 c164 166 302 303 307
303 5 1 42 -33 83 -74z m428 -264 c124 -124 225 -226 225 -228 0 -2 -19 -3
-42 -3 -42 0 -46 3 -230 187 l-187 187 -189 -187 c-187 -187 -188 -187 -232
-187 l-45 0 230 230 c126 127 233 229 237 228 4 -2 109 -104 233 -227z m-91
-76 c80 -79 146 -147 146 -150 0 -3 -130 -5 -290 -5 -159 0 -290 2 -290 4 0 2
64 68 143 148 78 79 143 145 144 146 1 1 67 -63 147 -143z m189 -412 l-2 -208
-81 0 -81 0 -2 175 -2 175 -162 3 -163 2 0 -180 0 -180 -85 0 -85 0 0 210 0
210 333 0 332 0 -2 -207z m-223 -58 l0 -155 -110 0 -110 0 0 155 0 155 110 0
110 0 0 -155z m-170 -340 c49 -74 90 -137 90 -140 0 -3 -137 -5 -305 -5 -168
0 -305 2 -305 4 0 3 41 66 90 140 l91 136 124 0 125 0 90 -135z"/>
<path d="M916 1044 c-12 -32 -7 -181 8 -193 9 -8 69 -11 192 -9 l179 3 0 105
0 105 -186 3 c-164 2 -187 0 -193 -14z m164 -88 l0 -54 -55 -4 -55 -3 0 58 0
57 55 0 55 0 0 -54z m170 1 c0 -30 -2 -56 -4 -58 -2 -2 -29 -2 -60 -1 l-56 4
0 54 0 54 60 0 60 0 0 -53z"/>
<path d="M690 540 c0 -27 3 -30 30 -30 27 0 30 -3 30 -30 0 -25 4 -30 25 -30
21 0 25 5 25 30 0 25 -4 30 -25 30 -21 0 -25 5 -25 30 0 27 -3 30 -30 30 -27
0 -30 -3 -30 -30z"/>
<path d="M910 540 c0 -27 3 -30 30 -30 27 0 30 3 30 30 0 27 -3 30 -30 30 -27
0 -30 -3 -30 -30z"/>
<path d="M1080 540 c0 -25 4 -30 25 -30 21 0 25 5 25 30 0 25 -4 30 -25 30
-21 0 -25 -5 -25 -30z"/>
<path d="M1800 540 c0 -25 4 -30 25 -30 21 0 25 5 25 30 0 25 -4 30 -25 30
-21 0 -25 -5 -25 -30z"/>
<path d="M1960 540 c0 -27 3 -30 30 -30 27 0 30 3 30 30 0 27 -3 30 -30 30
-27 0 -30 -3 -30 -30z"/>
<path d="M2180 540 c0 -25 -4 -30 -25 -30 -21 0 -25 -5 -25 -30 0 -25 4 -30
25 -30 21 0 25 5 25 30 0 27 3 30 30 30 27 0 30 3 30 30 0 27 -3 30 -30 30
-27 0 -30 -3 -30 -30z"/>
<path d="M970 370 c0 -25 4 -30 23 -30 31 0 35 5 29 35 -3 18 -11 25 -28 25
-20 0 -24 -5 -24 -30z"/>
<path d="M1910 370 c0 -25 4 -30 25 -30 21 0 25 5 25 30 0 25 -4 30 -25 30
-21 0 -25 -5 -25 -30z"/>
</g>
</svg>
